<?xml version="1.0" encoding="iso-8859-1"?>
<!-- Uploaded to: SVG Repo, www.svgrepo.com, Generator: SVG Repo Mixer Tools -->
<svg version="1.1" id="Layer_1" xmlns="http://www.w3.org/2000/svg" xmlns:xlink="http://www.w3.org/1999/xlink" 
	 viewBox="0 0 512 512" xml:space="preserve">
<rect x="128.191" style="fill:#FECA72;" width="255.618" height="278.854"/>
<path style="fill:#B8DE6F;" d="M0.382,256.382V512H256l22.472-127.809L256,256.382H0.382z"/>
<rect x="256" y="256.382" style="fill:#FD6144;" width="255.618" height="255.618"/>
<path style="fill:#FCE190;" d="M457.281,319.36c6.708,6.438,6.933,17.112,0.483,23.82c-6.449,6.719-17.112,6.933-23.831,0.494
	c-10.517-10.101-24.326-15.663-38.888-15.663c-30.978,0-56.18,25.191-56.18,56.18c0,30.978,25.202,56.18,56.18,56.18
	c14.562,0,28.371-5.573,38.888-15.674c6.719-6.438,17.382-6.225,23.831,0.494c6.449,6.708,6.225,17.382-0.483,23.82
	c-16.831,16.169-38.933,25.067-62.236,25.067c-49.562,0-89.888-40.326-89.888-89.888c0-49.573,40.326-89.888,89.888-89.888
	C418.348,294.303,440.449,303.202,457.281,319.36z"/>
<path style="fill:#FD6144;" d="M327.91,194.798c3.337,8.685-0.989,18.438-9.685,21.775c-8.674,3.348-18.438-0.989-21.775-9.674
	l-23.91-62.169l-33.067-0.022l-23.921,62.191c-2.573,6.697-8.966,10.809-15.73,10.809c-2.011,0-4.056-0.371-6.045-1.135
	c-8.697-3.337-13.022-13.09-9.685-21.775L240.27,48.73c2.506-6.506,8.753-10.809,15.73-10.809c6.978,0,13.225,4.303,15.73,10.809
	L327.91,194.798z"/>
<path style="fill:#00BAB9;" d="M195.607,347.663c0-29.427-23.124-53.36-51.539-53.36H77.629c-9.303,0-16.854,7.539-16.854,16.854
	v146.067c0,9.303,7.551,16.854,16.854,16.854h66.438c28.416,0,51.539-23.944,51.539-53.36c0-14.124-5.326-26.978-14-36.528
	C190.281,374.629,195.607,361.775,195.607,347.663z M144.067,440.371H94.483v-39.303h49.584c9.831,0,17.831,8.809,17.831,19.652
	C161.899,431.551,153.899,440.371,144.067,440.371z M144.067,367.303c-0.438,0-49.584,0.056-49.584,0.056v-39.348h49.584
	c9.831,0,17.831,8.809,17.831,19.652C161.899,358.494,153.899,367.303,144.067,367.303z"/>
</svg>