<?xml version="1.0" encoding="iso-8859-1"?>
<!-- Uploaded to: SVG Repo, www.svgrepo.com, Generator: SVG Repo Mixer Tools -->
<svg height="800px" width="800px" version="1.1" id="Layer_1" xmlns="http://www.w3.org/2000/svg" xmlns:xlink="http://www.w3.org/1999/xlink" 
	 viewBox="0 0 512.001 512.001" xml:space="preserve">
<path style="fill:#FFDB56;" d="M245.356,2.458c-1.631-1.529-3.822-2.31-6.052-2.171c-64.816,4.176-125.102,32.6-169.752,80.035
	C24.7,127.969,0,190.264,0,255.732c0,41.296,10.083,82.349,29.156,118.723c1.039,1.979,2.849,3.441,5.004,4.039
	c0.71,0.196,1.435,0.293,2.159,0.293c1.472,0,2.93-0.402,4.21-1.182l101.312-61.757c3.474-2.117,4.834-6.486,3.177-10.201
	c-6.954-15.592-10.48-32.219-10.48-49.419c0-61.16,45.692-112.971,106.285-120.52c4.049-0.505,7.089-3.946,7.089-8.026V8.36
	C247.912,6.124,246.986,3.987,245.356,2.458z"/>
<path style="fill:#F77935;" d="M442.45,80.322C397.799,32.887,337.513,4.463,272.698,0.287c-2.239-0.15-4.423,0.642-6.052,2.171
	c-1.631,1.529-2.556,3.665-2.556,5.9V127.68c0,4.081,3.039,7.522,7.089,8.026c60.592,7.549,106.285,59.361,106.285,120.52
	c0,17.18-3.518,33.789-10.457,49.366c-1.655,3.716-0.293,8.084,3.183,10.199l101.342,61.709c1.279,0.78,2.736,1.18,4.207,1.18
	c0.724,0,1.452-0.097,2.162-0.294c2.154-0.597,3.964-2.061,5.002-4.041c19.037-36.343,29.099-77.358,29.099-118.613
	C512,190.264,487.3,127.969,442.45,80.322z"/>
<path style="fill:#3FC8F2;" d="M466.808,396.563c-0.456-2.191-1.8-4.095-3.712-5.259l-101.253-61.652
	c-3.488-2.123-8.013-1.315-10.548,1.888c-23.212,29.329-57.946,46.15-95.294,46.15c-37.326,0-72.046-16.803-95.257-46.103
	c-2.538-3.203-7.062-4.011-10.551-1.884L48.97,391.405c-1.911,1.165-3.254,3.069-3.71,5.261c-0.455,2.191,0.018,4.473,1.306,6.303
	C94.53,471.073,172.823,511.732,256,511.732c83.225,0,161.544-40.697,209.504-108.865
	C466.792,401.035,467.264,398.753,466.808,396.563z"/>
<path style="fill:#0DAACE;" d="M463.096,391.303l-22.963-13.982c-38.861,72.782-111.848,124.579-197.6,134.031
	c4.473,0.236,8.961,0.379,13.467,0.379c83.225,0,161.544-40.697,209.504-108.865c1.288-1.83,1.76-4.113,1.303-6.304
	C466.351,394.371,465.007,392.467,463.096,391.303z"/>
<path style="fill:#D9510D;" d="M442.45,80.322C397.799,32.887,337.513,4.463,272.698,0.287c-2.239-0.15-4.423,0.642-6.052,2.171
	c-1.011,0.947-1.748,2.128-2.164,3.42c117.292,23.375,205.693,126.881,205.693,251.046c0,37.746-8.175,73.582-22.842,105.84
	l24.199,14.735c1.279,0.78,2.736,1.18,4.207,1.18c0.724,0,1.452-0.097,2.162-0.294c2.154-0.597,3.964-2.061,5.002-4.041
	c19.037-36.343,29.099-77.358,29.099-118.613C512,190.264,487.3,127.969,442.45,80.322z"/>
<path style="fill:#0DAACE;" d="M256,377.688c-37.326,0-72.046-16.803-95.257-46.103c-2.538-3.203-7.062-4.011-10.551-1.884
	l-24.149,14.72c24.192,27.319,59.522,44.547,98.883,44.547c22.115,0,42.955-5.444,61.266-15.054
	C276.454,376.396,266.327,377.688,256,377.688z"/>
<path style="fill:#FBA806;" d="M224.926,124.88c-72.926,0-132.044,59.118-132.044,132.044c0,27.713,8.544,53.427,23.132,74.665
	l25.827-15.743c3.474-2.117,4.834-6.486,3.177-10.201c-6.954-15.592-10.48-32.219-10.48-49.419
	c0-61.16,45.692-112.971,106.285-120.52c4.049-0.505,7.089-3.946,7.089-8.026v-0.801C240.446,125.568,232.767,124.88,224.926,124.88
	z"/>
</svg>